<?xml version="1.0" standalone="no"?>
<!DOCTYPE svg PUBLIC "-//W3C//DTD SVG 20010904//EN"
 "http://www.w3.org/TR/2001/REC-SVG-20010904/DTD/svg10.dtd">
<svg version="1.0" xmlns="http://www.w3.org/2000/svg"
 width="612.000000pt" height="612.000000pt" viewBox="0 0 612.000000 612.000000"
 preserveAspectRatio="xMidYMid meet">
<metadata>
Created by potrace 1.14, written by Peter Selinger 2001-2017
</metadata>
<g transform="translate(0.000000,612.000000) scale(0.100000,-0.100000)"
fill="#000000" stroke="none">
<path d="M3000 5121 c0 -5 -28 -46 -61 -92 -77 -104 -99 -150 -99 -216 0 -97
55 -176 193 -273 l58 -42 -7 79 c-5 62 -1 104 20 206 34 167 28 201 -58 310
-28 36 -46 47 -46 28z"/>
<path d="M2857 4478 c22 -93 13 -301 -16 -393 -49 -152 -149 -328 -305 -533
-163 -216 -229 -345 -257 -507 -11 -63 -9 -130 7 -247 6 -46 6 -48 -18 -48
-36 0 -102 52 -132 102 -32 56 -52 111 -80 223 -13 50 -27 89 -31 88 -13 -2
-82 -181 -115 -298 -53 -183 -74 -329 -74 -532 l-1 -182 -25 17 c-56 36 -111
64 -118 58 -10 -11 -5 -335 8 -426 69 -507 335 -808 784 -885 112 -19 359 -20
483 -1 80 12 106 12 185 -1 128 -20 370 -19 484 1 451 80 716 379 784 886 13
92 18 415 7 426 -3 3 -27 -5 -53 -20 -25 -14 -48 -26 -50 -26 -2 0 -4 53 -4
118 0 134 -18 263 -55 405 -30 116 -77 232 -94 232 -6 0 -56 -33 -110 -73
-122 -89 -145 -95 -190 -53 -33 31 -34 33 -28 94 3 34 15 123 26 197 25 162
27 361 6 484 -73 419 -370 719 -902 915 -62 22 -117 41 -122 41 -4 0 -2 -28 6
-62z m379 -1550 c-25 -90 -15 -203 25 -278 11 -19 19 -38 19 -42 0 -13 75
-119 136 -193 130 -158 168 -247 162 -372 -3 -50 -1 -83 5 -83 6 0 27 17 48
38 28 29 43 58 60 113 26 89 35 101 48 66 6 -15 20 -48 31 -73 51 -110 63
-188 64 -384 1 -180 0 -187 -28 -265 -64 -175 -173 -299 -340 -387 -120 -62
-183 -78 -331 -85 -115 -5 -139 -3 -210 17 -86 24 -208 80 -277 128 -138 96
-249 254 -282 401 -18 80 -21 240 -6 327 12 67 58 202 72 210 6 4 40 -14 77
-40 37 -25 73 -46 79 -46 7 0 21 9 31 19 16 16 18 26 11 58 -23 101 -32 254
-20 341 6 47 15 91 19 97 4 5 14 26 21 45 19 50 91 150 136 189 83 72 193 134
334 187 105 40 125 42 116 12z"/>
<path d="M2045 4083 c-4 -20 -41 -103 -82 -182 l-75 -145 4 -71 c6 -83 40
-173 100 -262 42 -62 58 -66 58 -16 0 21 29 108 96 293 17 48 23 87 24 147 0
79 -2 86 -47 174 -27 51 -53 94 -59 96 -7 2 -15 -13 -19 -34z"/>
<path d="M4506 2992 c-10 -31 -33 -90 -52 -131 -50 -108 -48 -159 10 -242 23
-35 51 -79 61 -98 l17 -34 27 44 c39 62 61 134 61 194 0 53 -14 100 -73 242
l-34 82 -17 -57z"/>
</g>
</svg>
